# xmcd CD database file
#
# Track frame offsets:
#	150
#	15450
#	29250
#	41400
#	58342
#	73492
#	89992
#	104242
#	117892
#	138742
#	150892
#
# Disc length: 2171 seconds
#
# Revision: 0
# Processed by: cddbd v1.5.1PL0 Copyright (c) Steve Scherf et al.
# Submitted via: CDex 1.51
#
DISCID=a108790b
DTITLE=4 on the Floor - Cowboys and Engines
DYEAR=2004
DGENRE=Country
TTITLE0=Down, Down, Down
TTITLE1=Looks Like You Done Me Right
TTITLE2=Vegas Bound
TTITLE3=Broke, Locked Up, Or Dead
TTITLE4=Lonesome For Folsom
TTITLE5=Double Grave
TTITLE6=I Thought You'd Change
TTITLE7=Hit 'N' Run
TTITLE8=Highway 9
TTITLE9=Too Much Buck
TTITLE10=#5 With Coffee
EXTD=YEAR: 2004
EXTT0=
EXTT1=
EXTT2=
EXTT3=
EXTT4=
EXTT5=
EXTT6=
EXTT7=
EXTT8=
EXTT9=
EXTT10=
PLAYORDER=
